# xmcd
#
# Track frame offsets: 
#        182
#        11925
#        24175
#        37450
#        51277
#        63232
#        73435
#        85067
#        97355
#        110430
#        124297
#        135190
#        148612
#        159347
#
# Disc length: 2250 seconds
#
# Revision: 0
# Processed by: cddbd v1.4PL0 Copyright (c) Steve Scherf et al.
# Submitted via: ExactAudioCopy v0.90b4
#
DISCID=cc08c80e
DTITLE=Little Walter - Real Chicago Blues
DYEAR=1990
DGENRE=Blues
TTITLE0=My Babe
TTITLE1=Last Night
TTITLE2=Roller Coaster
TTITLE3=You're So Fine
TTITLE4=Mellow Down Easy
TTITLE5=Hate To See You Go
TTITLE6=As Long As I Have You
TTITLE7=Juke
TTITLE8=Mean Old World
TTITLE9=Take Me Back
TTITLE10=My Baby's Sweeter
TTITLE11=Can't Hold Much Longer
TTITLE12=Blue Midnight
TTITLE13=Nobody But You
EXTD=
EXTT0=
EXTT1=
EXTT2=
EXTT3=
EXTT4=
EXTT5=
EXTT6=
EXTT7=
EXTT8=
EXTT9=
EXTT10=
EXTT11=
EXTT12=
EXTT13=
PLAYORDER=
